<?xml version="1.0" encoding="iso-8859-1"?>
<!-- Generator: Adobe Illustrator 19.0.0, SVG Export Plug-In . SVG Version: 6.00 Build 0)  -->
<svg version="1.1" id="Capa_1" xmlns="http://www.w3.org/2000/svg" xmlns:xlink="http://www.w3.org/1999/xlink" x="0px" y="0px"
	 viewBox="0 0 512 512" style="enable-background:new 0 0 512 512;" xml:space="preserve">
<path style="fill:#4DCFE0;" d="M355.626,355.626c-35.31,35.941-85.123,58.01-139.35,58.01c-109.084,0-197.36-88.276-197.36-197.36
	s88.276-197.36,197.36-197.36s197.36,88.276,197.36,197.36C413.635,270.502,391.566,320.315,355.626,355.626z"/>
<g>
	<path style="fill:#3A2C51;" d="M96.448,238.345c-9.603,0-17.825-7.276-18.803-17.037c-3.916-39.182,9.559-77.374,36.975-104.79
		c7.384-7.39,19.364-7.39,26.748,0c7.39,7.384,7.39,19.364,0,26.748c-19.358,19.358-28.866,46.433-26.079,74.278
		c1.04,10.391-6.545,19.667-16.943,20.707C97.715,238.313,97.078,238.345,96.448,238.345z"/>
	<path style="fill:#3A2C51;" d="M216.276,432.552C97.021,432.552,0,335.53,0,216.276S97.021,0,216.276,0
		s216.276,97.021,216.276,216.276c0,57.379-23.204,113.088-63.666,152.843C329.357,409.348,273.649,432.552,216.276,432.552z
		 M216.276,37.833c-98.396,0-178.443,80.047-178.443,178.443s80.047,178.443,178.443,178.443c47.297,0,93.169-19.08,125.862-52.348
		c33.494-32.927,52.581-78.799,52.581-126.096C394.719,117.88,314.666,37.833,216.276,37.833z"/>
	<path style="fill:#3A2C51;" d="M493.084,512c-4.843,0-9.679-1.847-13.374-5.542L342.252,368.999c-7.39-7.384-7.39-19.364,0-26.748
		c7.39-7.39,19.358-7.39,26.748,0L506.458,479.71c7.39,7.384,7.39,19.364,0,26.748C502.763,510.153,497.926,512,493.084,512z"/>
</g>
<g>
</g>
<g>
</g>
<g>
</g>
<g>
</g>
<g>
</g>
<g>
</g>
<g>
</g>
<g>
</g>
<g>
</g>
<g>
</g>
<g>
</g>
<g>
</g>
<g>
</g>
<g>
</g>
<g>
</g>
</svg>
