<svg id="Icons" height="512" viewBox="0 0 74 74" width="512" xmlns="http://www.w3.org/2000/svg"><path d="m48.24 72h-2.97a1 1 0 0 1 0-2h2.97a1 1 0 1 1 0 2z"/><path d="m69 72h-13.76a1 1 0 0 1 0-2h13.76a1 1 0 0 0 1-1v-64a1 1 0 0 0 -1-1h-64a1 1 0 0 0 -1 1v64a1 1 0 0 0 1 1h23.37a1 1 0 1 1 0 2h-23.37a3 3 0 0 1 -3-3v-64a3 3 0 0 1 3-3h64a3 3 0 0 1 3 3v64a3 3 0 0 1 -3 3z"/><path d="m38.27 72h-2.9a1 1 0 0 1 0-2h2.9a1 1 0 1 1 0 2z"/><path d="m71 18h-68a1 1 0 0 1 0-2h68a1 1 0 0 1 0 2z"/><path d="m62.656 10.75h-2.478a1 1 0 0 1 0-2h2.478a1 1 0 1 1 0 2z"/><path d="m53 10.75h-2.484a1 1 0 0 1 0-2h2.484a1 1 0 0 1 0 2z"/><path d="m43.333 10.75h-2.479a1 1 0 0 1 0-2h2.479a1 1 0 0 1 0 2z"/><path d="m29 44h-19a1 1 0 0 1 -1-1v-19a1 1 0 0 1 1-1h19a1 1 0 0 1 1 1v19a1 1 0 0 1 -1 1zm-18-2h17v-17h-17z"/><path d="m65 29h-27a1 1 0 0 1 0-2h27a1 1 0 0 1 0 2z"/><path d="m65 40.667h-27a1 1 0 0 1 0-2h27a1 1 0 0 1 0 2z"/><path d="m65 52.333h-56a1 1 0 0 1 0-2h56a1 1 0 0 1 0 2z"/><path d="m65 64h-56a1 1 0 0 1 0-2h56a1 1 0 0 1 0 2z"/></svg>